<svg width="549" height="416" viewBox="0 0 549 416" fill="none" xmlns="http://www.w3.org/2000/svg">
<rect width="549" height="416" fill="#E5E5E5"/>
<path d="M234.238 309C197.991 268.667 105.041 195.6 23.2158 226" stroke="black"/>
<path d="M231.052 326.003C187.09 305.374 81.808 281.005 12.3806 348.562" stroke="black"/>
<path d="M221.208 302.103C181.285 269.19 81.9405 214.857 3.94864 260.827" stroke="black"/>
<path d="M218.372 326.995C173.103 312.881 66.5694 303.978 2.59096 381.276" stroke="black"/>
<path d="M219.695 313.734C176.872 288.883 73.067 254.342 0.426291 314.987" stroke="black"/>
<path d="M229.112 335.457C183.246 325.777 76.5265 327.25 16.5741 410.577" stroke="black"/>
<path d="M232.515 316.788C191.791 285.837 91.1463 236.368 14.3535 286.102" stroke="black"/>
<path d="M218.528 91.9305C202.476 64.58 147.996 0.74426 135.393 1.02067C125.425 -0.502799 116.363 98.6419 134.585 151.564" stroke="black"/>
<path d="M192.795 90.1725C183.757 76.5492 153.874 45.206 147.373 45.6838C142.183 45.1667 140.214 96.3427 151.072 123.045" stroke="black"/>
<path d="M318.5 308C354.171 267.667 445.644 194.6 526.169 225" stroke="black"/>
<path d="M321.635 325.003C364.899 304.374 468.508 280.006 536.832 347.563" stroke="black"/>
<path d="M331.323 301.103C370.612 268.19 468.377 213.858 545.13 259.828" stroke="black"/>
<path d="M334.114 325.995C378.664 311.881 483.504 302.978 546.466 380.276" stroke="black"/>
<path d="M332.812 312.734C374.954 287.883 477.11 253.342 548.596 313.987" stroke="black"/>
<path d="M323.545 334.457C368.682 324.778 473.705 326.25 532.705 409.577" stroke="black"/>
<path d="M320.196 315.789C360.272 284.837 459.318 235.368 534.89 285.102" stroke="black"/>
<path d="M341.724 91.4736C358.576 64.6083 414.915 2.40708 427.505 3.05506C437.513 1.82622 443.648 101.195 423.872 153.557" stroke="black"/>
<path d="M367.791 91.3C376.755 77.6279 406.468 46.1235 412.972 46.5661C418.159 46.021 420.405 97.1856 409.691 123.947" stroke="black"/>
<path d="M305.5 287C282.109 272.403 270.223 273.263 249.5 288C262 289.5 265.529 312.5 278.5 312.5C288.5 312.5 292.5 290 305.5 287Z" stroke="black"/>
<path d="M279 313C279 313 279 325.819 279 351.457C279 377.095 333 375.386 333 351.03" stroke="black"/>
<path d="M279 313C279 313 279 325.819 279 351.457C279 377.095 225 375.386 225 351.03" stroke="black"/>
<path d="M163 213C197.072 193.188 214.293 195.253 243 213" stroke="black" stroke-width="6" stroke-linecap="round"/>
<path d="M310 213C344.072 193.188 361.293 195.253 390 213" stroke="black" stroke-width="6" stroke-linecap="round"/>
<path d="M452.5 253.5C452.5 300.613 418.042 341.108 379.202 369.867C359.796 384.236 339.329 395.651 321.595 403.471C303.839 411.302 288.889 415.5 280.5 415.5C272.109 415.5 256.846 411.301 238.619 403.47C220.416 395.648 199.323 384.233 179.291 369.863C139.198 341.1 103.5 300.605 103.5 253.5C103.5 159.056 172.256 82.5 280.5 82.5C334.638 82.5 377.628 101.649 407.084 132.576C436.545 163.507 452.5 206.254 452.5 253.5Z" stroke="black"/>
<path d="M291 368C284 372.5 273.621 372.058 267 368" stroke="black" stroke-linecap="square"/>
</svg>
